<svg xmlns="http://www.w3.org/2000/svg" width="1024" height="1024" viewBox="0 0 1024 1024"><g id="others"><path id="7" d="M 511.500,660 C 512.242,658.800 517.707,658.800 520.500,660 C 521.936,660.617 520.861,660.880 516.691,660.930 C 513.057,660.974 511.113,660.626 511.500,660" stroke="#242424" fill="#242424" stroke-width="1" />
  <path id="5" d="M 500.776,659.266 C 503.128,659.055 506.728,659.058 508.776,659.273 C 510.824,659.488 508.900,659.661 504.500,659.657 C 500.100,659.653 498.424,659.477 500.776,659.266" stroke="#414141" fill="#414141" stroke-width="1" />
  </g><g id="dice 4"><path id="4" d="M 499,883.318 C 484.471,880.937 472.488,876.175 456,866.228 C 427.611,849.102 405.647,822.479 400.537,799 C 399.639,794.875 398.476,790.118 397.952,788.429 C 396.718,784.451 396.733,773.134 397.981,766.060 C 398.520,763.002 399.686,756.472 400.572,751.548 C 402.105,743.030 408.535,725.355 412.049,720 C 412.951,718.625 415.405,714.575 417.501,711 C 430.682,688.521 454.366,668.833 473.523,664.429 C 477.360,663.547 481.546,662.409 482.825,661.900 C 484.104,661.391 485.513,661.199 485.956,661.473 C 486.399,661.747 491.203,661.541 496.631,661.016 C 517.863,658.961 547.906,664.239 562,672.499 C 563.375,673.305 566.060,674.694 567.966,675.586 C 578.348,680.443 597.723,697.973 604.614,708.745 C 610.702,718.262 614.887,726.814 617.130,734.317 C 618.311,738.267 619.620,741.950 620.040,742.500 C 621.300,744.151 622.995,760.817 622.990,771.500 C 622.984,784.099 621.719,791.992 617.781,804 C 611.331,823.668 604.477,834.738 589.716,849.327 C 569.261,869.543 551.836,879.293 529.500,883.020 C 524.432,883.866 503.584,884.069 499,883.318" stroke="#131313" fill="#131313" stroke-width="1" />
  <path id="5" d="M 397.170,765.500 C 397.154,763.300 397.527,760.600 398,759.500 C 398.693,757.887 398.854,758.177 398.830,761 C 398.814,762.925 398.440,765.625 398,767 C 397.312,769.148 397.195,768.937 397.170,765.500" stroke="#414141" fill="#414141" stroke-width="1" />
  </g><g id="dice 3"><path id="4" d="M 244,365.029 C 231.666,361.875 211.417,353.906 203.882,349.240 C 201.892,348.008 199.922,347 199.504,347 C 199.086,347 195.736,344.769 192.058,342.043 C 172.362,327.442 160.572,307.692 153.228,277 C 151.233,268.665 150.953,237.997 152.798,230 C 157.518,209.546 166.812,194.713 189.998,170.629 C 199.729,160.521 204.448,157.238 218,151.149 C 240.864,140.876 252.238,138.417 269.384,140.039 C 292.544,142.230 312.933,152.318 338.617,174.294 C 352.647,186.299 361.225,197.025 367.562,210.487 C 373.901,223.952 377.125,243.911 375.118,257.257 C 373.030,271.141 370.930,281.230 369.567,283.928 C 368.852,285.342 367.709,288.300 367.026,290.500 C 360.601,311.196 341.546,336.639 324.126,347.782 C 308.632,357.694 282.430,365.027 260.500,365.590 C 253.350,365.773 245.925,365.521 244,365.029" stroke="#131313" fill="#131313" stroke-width="1" />
  </g><g id="dice 2"><path id="4" d="M 497,570 C 495.625,569.560 493.061,569.155 491.302,569.100 C 482.664,568.831 461.326,559.869 447.263,550.604 C 438.954,545.130 423.857,530.673 418.958,523.500 C 404.652,502.551 398.697,479.239 400.391,450.813 C 401.218,436.942 402.300,431.508 406.434,420.472 C 413.977,400.337 425.552,385.140 441.356,374.625 C 449.130,369.453 462.871,362.007 464.669,361.994 C 465.126,361.991 466.705,361.359 468.178,360.590 C 469.651,359.821 474.151,358.453 478.178,357.549 C 482.205,356.645 488.875,354.695 493,353.215 C 499.992,350.707 501.617,350.525 517,350.523 C 533.419,350.521 536.210,350.951 546.500,355.075 C 547.600,355.516 551,356.567 554.056,357.410 C 570.213,361.869 593.551,378.958 604.762,394.539 C 617.109,411.699 623.981,435.491 623.994,461.119 C 624.007,486.638 617.256,505.156 600.156,526.500 C 581.911,549.273 564.490,561.449 543.047,566.414 C 525.841,570.398 503.641,572.127 497,570" stroke="#131313" fill="#131313" stroke-width="1" />
  </g><g id="dice 1"><path id="4" d="M 745.500,365.001 C 738.880,364.203 735.924,363.662 723.139,360.904 C 711.520,358.398 690.688,345.258 679.117,333.138 C 667.954,321.445 661.430,311.066 655.899,296.199 C 647.018,272.328 646.605,237.126 654.982,218.041 C 665.548,193.967 689.845,165.640 707.608,156.685 C 710.417,155.269 716.919,152.928 722.056,151.484 C 727.193,150.040 732.125,148.468 733.016,147.991 C 740.139,144.179 774.780,142.624 791.220,145.378 C 823.976,150.865 854.318,177.495 867.683,212.487 C 873.784,228.460 875.049,245.282 871.854,267.945 C 870.570,277.052 864.896,295.131 861.268,301.675 C 854.712,313.500 836.942,334.784 824.732,345.435 C 814.385,354.461 807.872,358.284 796.500,362.008 C 787.021,365.112 785.615,365.297 769.500,365.564 C 760.150,365.719 749.350,365.465 745.500,365.001" stroke="#131313" fill="#131313" stroke-width="1" />
</g></svg>